<?xml version="1.0" encoding="utf-8"?>
<!-- Generator: Adobe Illustrator 16.0.0, SVG Export Plug-In . SVG Version: 6.00 Build 0)  -->
<!DOCTYPE svg PUBLIC "-//W3C//DTD SVG 1.1//EN" "http://www.w3.org/Graphics/SVG/1.1/DTD/svg11.dtd">
<svg version="1.1" id="Capa_1" xmlns="http://www.w3.org/2000/svg" xmlns:xlink="http://www.w3.org/1999/xlink" x="0px" y="0px"
	 width="460px" height="560px" viewBox="0 0 460 560" enable-background="new 0 0 460 560" xml:space="preserve">
<g opacity="0.5">
	<path opacity="0.8" fill="#FFFFFF" stroke="#F0D7BC" stroke-miterlimit="10" enable-background="new    " d="M396.016,553.927"/>
</g>
<g>
	<path fill="#FFFFFF" d="M318.469,71.099c-6.653,1.015-13.401,1.619-19.948,3.106C171.579,103.06,93.372,182.072,60.273,306.868
		c-3.333,12.565-5.577,26.315-4.176,39.06c3.394,30.858,13.853,59.957,27.986,87.633c2.53,4.951,5.45,9.709,8.189,14.557
		C46.072,280.339,149.183,112.662,318.469,71.099z"/>
	<path opacity="0.9" fill="#333366" enable-background="new    " d="M171.104,62.347c-5.112,3.685-10.547,7-15.289,11.112
		C93.684,127.341,55.516,194.745,49.629,277.008c-8.877,124.061,41.744,218.206,149.729,280.879
		c1.042,0.604,1.971,1.403,2.951,2.113c-31.85,0-63.699,0-95.55,0c-1.804-2.229-3.465-4.591-5.433-6.661
		C36.647,485.288,3.965,404.427,10.153,310.588c7.099-107.666,57.23-190.875,150.457-246.96c1.831-1.102,12.479-6.685,16.134-8.108
		c0.225,0.477,0.449,0.954,0.674,1.431C175.313,58.75,173.209,60.548,171.104,62.347z"/>
	<path opacity="0.9" fill="#FFCC33" enable-background="new    " d="M318.469,71.099C149.183,112.662,46.072,280.339,92.272,448.116
		c-2.74-4.847-5.659-9.604-8.189-14.558c-14.133-27.675-24.592-56.772-27.986-87.632c-1.401-12.743,0.843-26.493,4.176-39.06
		C93.372,182.072,171.579,103.06,298.521,74.206C305.066,72.718,311.813,72.114,318.469,71.099z"/>
</g>
<g opacity="0.2">
	<path opacity="0.9" fill="#1C1C1C" enable-background="new    " d="M323.185,64.653c-3.459,0.864-6.907,1.765-10.378,2.585
		c-12.801,3.028-25.48,6.967-38.456,8.72c-8.89,1.2-16.763,2.699-23.072,9.514c-1.563,1.687-4.181,2.463-6.414,3.417
		c-0.646,0.275-1.976-0.034-2.387-0.554c-0.347-0.438-0.072-1.754,0.366-2.36c1.574-2.168,3.414-4.142,4.983-6.313
		c0.518-0.716,1.001-2.372,0.687-2.639c-3.721-3.154-2.396-5.812,1.158-8.415c-5.928-5.027-11.469-9.823-17.12-14.487
		c-3.512-2.898-3.412-2.844,0.376-5.009c3.85-2.2,7.367-2.149,11.277-0.34c3.374,1.561,6.902,2.852,10.467,3.917
		c1.681,0.501,3.691,0.566,5.396,0.163c2.397-0.568,3.92-0.251,5.236,2.006c2.245,3.847,5.389,4.838,9.493,3.257
		c17.728-6.824,35.425-13.719,53.179-20.467c2.535-0.964,3.205-2.151,2.289-4.702c-1.772-4.93-3.422-9.912-4.9-14.937
		c-0.476-1.613-0.91-4.56-0.237-4.949c2.46-1.423,5.414-2.4,8.224-0.485c0.845,0.575,1.518,1.441,2.177,2.248
		c3.323,4.062,6.727,8.065,9.874,12.261c1.684,2.245,3.3,2.69,5.937,1.654c13.338-5.239,26.716-10.377,40.141-15.392
		c3.81-1.423,7.82-2.297,11.732-3.445c4.461-1.311,8.857-1.671,13.349,0.096c1.688,0.664,3.698,0.461,5.479,0.954
		c1.863,0.516,3.885,1.052,5.38,2.184c2.639,1.998,2.577,4.083,0.271,6.443c-5.052,5.168-10.985,9.018-17.742,11.544
		c-13.206,4.939-26.563,9.501-39.61,14.824c-7.181,2.929-13.878,7.051-20.751,10.712c-1.419,0.756-2.655,1.855-3.976,2.795
		c0.31,0.369,0.619,0.738,0.928,1.106c0.731-0.176,1.489-0.279,2.188-0.542c2.566-0.965,5.034-1.304,7,1.142
		c2.187,2.719,3.129,5.816,1.73,9.122c-0.414,0.979-1.797,1.89-2.904,2.177c-5.744,1.484-11.499,3.019-17.34,4
		c-3.33,0.56-5.885,1.795-8.059,4.306c-7.562,8.728-15.166,17.418-22.833,26.053c-1.771,1.994-3.668,3.991-5.871,5.431
		c-1.046,0.684-2.947,0.059-4.461,0.026c0.124-1.341-0.213-2.99,0.442-3.977c7.625-11.452,15.453-22.767,23.096-34.207
		c1.771-2.654,3.044-5.644,4.546-8.478C323.775,65.292,323.479,64.973,323.185,64.653z"/>
</g>
<g>
	<path fill="#FFFFFF" d="M429.41,143.298c-6.654,0.865-13.402,1.38-19.949,2.647C282.52,170.54,204.313,237.883,171.214,344.25
		c-3.333,10.71-5.577,22.429-4.176,33.291c3.394,26.302,13.853,51.104,27.986,74.691c2.53,4.221,5.45,8.275,8.189,12.407
		C157.013,321.639,260.123,178.724,429.41,143.298z"/>
	<path opacity="0.9" fill="#333366" enable-background="new    " d="M282.045,135.839c-5.111,3.141-10.547,5.966-15.289,9.471
		c-62.131,45.925-100.299,103.375-106.186,173.489c-8.877,105.74,41.744,185.982,149.729,239.4c1.041,0.514,1.971,1.195,2.951,1.801
		c-31.85,0-63.699,0-95.55,0c-1.804-1.899-3.465-3.913-5.433-5.678c-64.679-58.001-97.361-126.921-91.173-206.902
		c7.099-91.766,57.23-162.687,150.457-210.489c1.83-0.939,12.479-5.698,16.133-6.911
		C287.908,130.427,284.15,134.305,282.045,135.839z"/>
	<path opacity="0.9" fill="#FFCC33" enable-background="new    " d="M429.41,143.298c-169.287,35.425-272.397,178.34-226.197,321.34
		c-2.74-4.131-5.659-8.186-8.189-12.407c-14.133-23.588-24.592-48.389-27.986-74.691c-1.401-10.861,0.843-22.58,4.176-33.291
		C204.313,237.883,282.52,170.54,409.461,145.947C416.008,144.678,422.754,144.163,429.41,143.298z"/>
</g>
</svg>
